<svg width="79" height="67" viewBox="0 0 79 67" fill="none" xmlns="http://www.w3.org/2000/svg">
<path fill-rule="evenodd" clip-rule="evenodd" d="M48.9288 43.4265C47.51 46.7522 43.6626 48.2987 40.3392 46.8809C37.0116 45.463 35.465 41.6176 36.8838 38.2915C38.3026 34.9663 42.1458 33.4193 45.4734 34.8372C48.7967 36.2555 50.3434 40.1005 48.9288 43.4265" fill="#A6C0E3"/>
<path fill-rule="evenodd" clip-rule="evenodd" d="M36.8509 38.2674C36.5766 38.9132 36.4163 39.5784 36.3572 40.2416C37.007 41.0589 37.8594 41.7313 38.8849 42.1696C42.1763 43.5789 45.9868 42.0413 47.392 38.7358C47.6663 38.0904 47.8224 37.4252 47.8815 36.762C47.2359 35.9452 46.3835 35.2727 45.3581 34.834C42.0624 33.4247 38.2561 34.9623 36.8509 38.2674" fill="#C5D2E3"/>
<path fill-rule="evenodd" clip-rule="evenodd" d="M42.2985 42.3947C42.7809 41.3305 44.0849 40.8357 45.2193 41.2892C46.3494 41.7432 46.8753 42.9738 46.3929 44.038C45.9104 45.1022 44.6021 45.5971 43.472 45.1431C42.3419 44.6895 41.816 43.4589 42.2985 42.3947" fill="#D2E3F7"/>
<path fill-rule="evenodd" clip-rule="evenodd" d="M42.5492 36.9995C42.2955 37.5981 41.6026 37.8764 41.0025 37.6215C40.4023 37.3658 40.1243 36.6738 40.3821 36.0755C40.6359 35.4768 41.3287 35.1982 41.9249 35.4535C42.5251 35.7087 42.803 36.4008 42.5492 36.9995" fill="#D2E3F7"/>
<path fill-rule="evenodd" clip-rule="evenodd" d="M61.887 63.7638C60.8092 66.2915 57.8874 67.4667 55.3614 66.3887C52.8311 65.3115 51.6565 62.389 52.7343 59.8614C53.812 57.3337 56.7338 56.158 59.2641 57.236C61.7901 58.3136 62.9647 61.2361 61.887 63.7638" fill="#A6C0E3"/>
<path fill-rule="evenodd" clip-rule="evenodd" d="M52.7157 59.8034C52.5038 60.2877 52.3809 60.7865 52.3342 61.284C52.8344 61.8967 53.4956 62.4008 54.2882 62.7298C56.8313 63.7868 59.7771 62.6336 60.8622 60.1544C61.0741 59.6701 61.197 59.1713 61.2394 58.6742C60.7393 58.0611 60.0823 57.557 59.2897 57.2284C56.7423 56.171 53.8008 57.3241 52.7157 59.8034" fill="#C5D2E3"/>
<path fill-rule="evenodd" clip-rule="evenodd" d="M56.9138 62.8472C57.2527 61.9828 58.1776 61.5806 58.9749 61.9491C59.7722 62.318 60.143 63.3177 59.8041 64.1822C59.4613 65.0471 58.5404 65.4493 57.743 65.0804C56.9457 64.7123 56.571 63.7122 56.9138 62.8472" fill="#D2E3F7"/>
<path fill-rule="evenodd" clip-rule="evenodd" d="M56.9744 58.636C56.779 59.1012 56.2376 59.3182 55.7735 59.1196C55.3094 58.9209 55.0896 58.3824 55.2891 57.9171C55.4885 57.4515 56.0259 57.2349 56.494 57.4335C56.9581 57.6322 57.1739 58.1703 56.9744 58.636" fill="#D2E3F7"/>
<path fill-rule="evenodd" clip-rule="evenodd" d="M22.9446 35.0369C19.5047 36.8875 15.2188 35.5997 13.3685 32.1613C11.5182 28.7225 12.8044 24.4351 16.2443 22.5845C19.6799 20.7344 23.9702 22.0218 25.8204 25.4602C27.6707 28.899 26.3845 33.1868 22.9446 35.0369" fill="#A6C0E3"/>
<path fill-rule="evenodd" clip-rule="evenodd" d="M16.3593 22.5757C15.6958 22.9334 15.1126 23.3849 14.6182 23.9024C14.6182 25.0254 14.8844 26.1652 15.4549 27.2239C17.2847 30.6262 21.5234 31.9005 24.9253 30.0694C25.5887 29.7117 26.1719 29.2597 26.6663 28.7426C26.6663 27.6197 26.4001 26.4798 25.8296 25.4211C23.9998 22.0188 19.7569 20.7449 16.3593 22.5757" fill="#C5D2E3"/>
<path fill-rule="evenodd" clip-rule="evenodd" d="M18.2159 29.6167C19.3613 28.9997 20.793 29.4287 21.4085 30.5751C22.0239 31.7215 21.5965 33.1507 20.4511 33.7672C19.3015 34.3842 17.874 33.9548 17.2586 32.8089C16.6389 31.6625 17.0706 30.2333 18.2159 29.6167" fill="#D2E3F7"/>
<path fill-rule="evenodd" clip-rule="evenodd" d="M21.7863 25.2493C21.1506 25.592 20.357 25.3536 20.0121 24.7168C19.6714 24.0799 19.9082 23.2861 20.5439 22.9434C21.1838 22.6007 21.9774 22.8391 22.3181 23.4759C22.663 24.1128 22.422 24.9066 21.7863 25.2493" fill="#D2E3F7"/>
<path fill-rule="evenodd" clip-rule="evenodd" d="M51.4295 13.1527C52.0469 16.0518 50.1991 18.9042 47.2996 19.5241C44.4001 20.1437 41.5475 18.2953 40.9302 15.3961C40.3085 12.4969 42.1564 9.64416 45.0558 9.02464C47.9553 8.40554 50.8079 10.2535 51.4295 13.1527" fill="#A6C0E3"/>
<path fill-rule="evenodd" clip-rule="evenodd" d="M40.9301 15.4815C41.0493 16.0552 41.2579 16.5863 41.5345 17.0682C42.3603 17.3136 43.2584 17.3606 44.1608 17.1657C47.0552 16.538 48.9067 13.6476 48.2853 10.7102C48.1661 10.1364 47.9575 9.60537 47.6809 9.1235C46.8551 8.87803 45.957 8.83101 45.0546 9.026C42.156 9.65369 40.3087 12.5441 40.9301 15.4815" fill="#C5D2E3"/>
<path fill-rule="evenodd" clip-rule="evenodd" d="M46.6106 15.5744C46.412 14.5842 46.9997 13.6102 47.9198 13.3986C48.8399 13.187 49.7438 13.8182 49.9383 14.808C50.137 15.7981 49.5492 16.7722 48.6291 16.9837C47.709 17.1953 46.8052 16.5645 46.6106 15.5744" fill="#D2E3F7"/>
<path fill-rule="evenodd" clip-rule="evenodd" d="M44.1923 11.8288C44.31 12.3951 43.9525 12.9517 43.3857 13.0725C42.8189 13.1934 42.2652 12.833 42.1431 12.2672C42.021 11.701 42.3829 11.1448 42.9453 11.024C43.5121 10.9027 44.0702 11.2635 44.1923 11.8288" fill="#D2E3F7"/>
<path fill-rule="evenodd" clip-rule="evenodd" d="M12.4713 6.80737C12.0357 10.106 9.01172 12.429 5.71552 11.9963C2.41514 11.5641 0.0948252 8.53898 0.52622 5.24038C0.957615 1.94221 3.98157 -0.380842 7.28195 0.0518504C10.5781 0.484124 12.9026 3.5092 12.4713 6.80737" fill="#A6C0E3"/>
<path fill-rule="evenodd" clip-rule="evenodd" d="M0.524688 5.14967C0.440556 5.78274 0.465796 6.4047 0.575167 7.00031C1.3618 7.55723 2.29987 7.93633 3.33049 8.06846C6.64108 8.49367 9.67824 6.21124 10.1157 2.96974C10.1999 2.33626 10.1746 1.71472 10.061 1.11869C9.27441 0.562595 8.34054 0.183083 7.30993 0.0509529C3.99513 -0.374249 0.957968 1.90859 0.524688 5.14967" fill="#C5D2E3"/>
<path fill-rule="evenodd" clip-rule="evenodd" d="M6.25442 7.32306C6.40735 6.17571 7.45605 5.36755 8.60525 5.51834C9.75008 5.6687 10.5585 6.72076 10.4099 7.8681C10.257 9.01544 9.20825 9.82361 8.05905 9.67282C6.91422 9.52246 6.10585 8.4704 6.25442 7.32306" fill="#D2E3F7"/>
<path fill-rule="evenodd" clip-rule="evenodd" d="M5.17853 2.64156C5.09675 3.28697 4.50277 3.74177 3.85714 3.65658C3.21151 3.57224 2.75956 2.98018 2.84134 2.33477C2.92743 1.68979 3.52141 1.23498 4.16704 1.31975C4.81267 1.40451 5.26461 1.99614 5.17853 2.64156" fill="#D2E3F7"/>
<path fill-rule="evenodd" clip-rule="evenodd" d="M77.9693 45.283C76.4639 48.8085 72.3881 50.4477 68.8658 48.9444C65.3393 47.4418 63.6997 43.3653 65.2009 39.8403C66.7063 36.3143 70.7821 34.6755 74.3044 36.1785C77.8309 37.6814 79.4705 41.7575 77.9693 45.283" fill="#A6C0E3"/>
<path fill-rule="evenodd" clip-rule="evenodd" d="M65.1786 39.8247C64.8794 40.5104 64.7084 41.2173 64.6443 41.9221C65.3496 42.7903 66.2815 43.5048 67.4015 43.9702C70.9923 45.4677 75.1473 43.8344 76.682 40.3219C76.9812 39.6359 77.1522 38.9294 77.2163 38.2245C76.511 37.3563 75.5791 36.6419 74.4591 36.1764C70.8683 34.679 66.7133 36.3118 65.1786 39.8247" fill="#C5D2E3"/>
<path fill-rule="evenodd" clip-rule="evenodd" d="M71.1082 44.1254C71.5885 42.9283 72.8961 42.3712 74.0303 42.8821C75.1603 43.3927 75.685 44.7765 75.2047 45.9741C74.7204 47.1712 73.4128 47.7279 72.2827 47.2177C71.1526 46.7072 70.6279 45.3229 71.1082 44.1254" fill="#D2E3F7"/>
<path fill-rule="evenodd" clip-rule="evenodd" d="M71.3395 38.4121C71.0243 39.1436 70.1793 39.4835 69.4485 39.1719C68.7177 38.8598 68.3751 38.0141 68.6903 37.2821C69.0009 36.5506 69.8459 36.2102 70.5767 36.5223C71.3075 36.8343 71.6501 37.6801 71.3395 38.4121" fill="#D2E3F7"/>
</svg>
